<?xml version="1.0" encoding="utf-8"?>
<!-- Generator: Adobe Illustrator 16.0.0, SVG Export Plug-In . SVG Version: 6.00 Build 0)  -->
<!DOCTYPE svg PUBLIC "-//W3C//DTD SVG 1.1//EN" "http://www.w3.org/Graphics/SVG/1.1/DTD/svg11.dtd">
<svg version="1.1" id="Layer_1" xmlns="http://www.w3.org/2000/svg" xmlns:xlink="http://www.w3.org/1999/xlink" x="0px" y="0px"
	 width="345.580587997" height="289.368105366" viewBox="0 0 406.299 340.21" enable-background="new 0 0 406.299 340.21"
	 xml:space="preserve">
<path fill="#FFFFFF" d="M406.299,0c-11.374,10.772-24.455,19.188-41.017,25.209c-19.175,6.604-37.125,9.436-57.716,12.056
	c-42.102,5.69-81.629,5.307-125.001,23.237c-3.712,1.998-29.026,10.468-52.092,38.35c-23.635,28.134-32.289,73.008-39.343,112.783
	c-6.604,40.454-20.267,76.911-43.18,92.275c-22.066,15.933-42.479,18.076-42.24,19.545c-0.172,0.225,11.486-1.905,22.523-6.312
	c11.182-4.194,20.895-11.327,21.769-12.028c9.21-6.207,23.886-20.724,32.54-44.86c9.276-23.688,13.472-54.521,20.181-84.838
	c6.312-30.288,18.248-60.711,36.483-79.898c17.925-19.268,37.066-27.578,45.198-31.283c62.547-25.95,122.658-17.613,181.434-38.396
	c15.886-5.896,28.609-14.14,39.759-24.574L406.299,0z"/>
<path fill="none" d="M406.299,0c-11.374,10.772-24.455,19.188-41.017,25.209c-19.175,6.604-37.125,9.436-57.716,12.056
	c-42.102,5.69-81.629,5.307-125.001,23.237c-3.712,1.998-29.026,10.468-52.092,38.35c-23.635,28.134-32.289,73.008-39.343,112.783
	c-6.604,40.454-20.267,76.911-43.18,92.275c-22.066,15.933-42.479,18.076-42.24,19.545c-0.172,0.225,11.486-1.905,22.523-6.312
	c11.182-4.194,20.895-11.327,21.769-12.028c9.21-6.207,23.886-20.724,32.54-44.86c9.276-23.688,13.472-54.521,20.181-84.838
	c6.312-30.288,18.248-60.711,36.483-79.898c17.925-19.268,37.066-27.578,45.198-31.283c62.547-25.95,122.658-17.613,181.434-38.396
	c15.886-5.896,28.609-14.14,39.759-24.574L406.299,0z"/>
<path fill="#FFFFFF" d="M400.377,10.745c-9.766,7.636-20.763,13.829-33.679,18.514c-19.664,6.762-37.854,9.634-58.576,12.254
	c-42.313,5.677-81.596,5.399-123.883,22.933c-3.646,1.933-28.192,10.177-50.392,37.066c-22.787,27.022-31.448,70.93-38.509,110.943
	c-6.569,40.401-20.563,78.579-44.82,94.869c-23.225,16.727-44.1,18.817-43.881,20.312c-0.192,0.225,11.797-1.945,23.25-6.55
	c11.586-4.341,21.809-11.805,22.735-12.572c9.66-6.511,25.09-22.007,33.942-46.779c9.502-24.349,13.657-55.367,20.347-85.42
	c6.266-30.049,17.95-59.479,35.471-77.9c17.25-18.539,35.763-26.611,43.696-30.251C247.11,42.69,307.104,50.968,367.268,29.881
	c12.347-4.579,22.999-10.587,32.487-17.984L400.377,10.745z"/>
<path fill="none" d="M400.377,10.745c-9.766,7.636-20.763,13.829-33.679,18.514c-19.664,6.762-37.854,9.634-58.576,12.254
	c-42.313,5.677-81.596,5.399-123.883,22.933c-3.646,1.933-28.192,10.177-50.392,37.066c-22.787,27.022-31.448,70.93-38.509,110.943
	c-6.569,40.401-20.563,78.579-44.82,94.869c-23.225,16.727-44.1,18.817-43.881,20.312c-0.192,0.225,11.797-1.945,23.25-6.55
	c11.586-4.341,21.809-11.805,22.735-12.572c9.66-6.511,25.09-22.007,33.942-46.779c9.502-24.349,13.657-55.367,20.347-85.42
	c6.266-30.049,17.95-59.479,35.471-77.9c17.25-18.539,35.763-26.611,43.696-30.251C247.11,42.69,307.104,50.968,367.268,29.881
	c12.347-4.579,22.999-10.587,32.487-17.984L400.377,10.745z"/>
<path fill="#FFFFFF" d="M395.547,19.546c-8.251,5.505-17.322,10.083-27.452,13.749c-20.161,6.935-38.574,9.825-59.424,12.466
	c-42.505,5.677-81.582,5.491-122.744,22.615c-3.586,1.879-27.359,9.925-48.718,35.782c-21.94,25.938-30.595,68.865-37.668,109.078
	c-6.518,40.374-20.875,80.299-46.455,97.528C28.69,328.299,7.352,330.271,7.551,331.818c-0.186,0.238,12.108-1.998,23.965-6.762
	c12.029-4.513,22.761-12.36,23.707-13.167c10.124-6.775,26.328-23.251,35.359-48.698c9.733-24.984,13.882-56.215,20.518-85.963
	c6.227-29.824,17.641-58.275,34.453-75.948c16.562-17.818,34.473-25.64,42.214-29.186c59.503-24.998,119.396-16.78,180.91-38.178
	c9.641-3.547,18.328-8.006,26.288-13.3L395.547,19.546z"/>
<path fill="none" d="M395.547,19.546c-8.251,5.505-17.322,10.083-27.452,13.749c-20.161,6.935-38.574,9.825-59.424,12.466
	c-42.505,5.677-81.582,5.491-122.744,22.615c-3.586,1.879-27.359,9.925-48.718,35.782c-21.94,25.938-30.595,68.865-37.668,109.078
	c-6.518,40.374-20.875,80.299-46.455,97.528C28.69,328.299,7.352,330.271,7.551,331.818c-0.186,0.238,12.108-1.998,23.965-6.762
	c12.029-4.513,22.761-12.36,23.707-13.167c10.124-6.775,26.328-23.251,35.359-48.698c9.733-24.984,13.882-56.215,20.518-85.963
	c6.227-29.824,17.641-58.275,34.453-75.948c16.562-17.818,34.473-25.64,42.214-29.186c59.503-24.998,119.396-16.78,180.91-38.178
	c9.641-3.547,18.328-8.006,26.288-13.3L395.547,19.546z"/>
<path fill="#FFFFFF" d="M391.332,27.221c-6.769,3.931-14.007,7.292-21.828,10.123c-20.63,7.094-39.303,10.005-60.277,12.665
	c-42.703,5.65-81.562,5.598-121.626,22.311c-3.507,1.826-26.513,9.66-47.03,34.513c-21.094,24.799-29.722,66.787-36.814,107.211
	c-6.472,40.322-21.187,81.967-48.09,100.162c-25.579,18.302-47.374,20.194-47.202,21.809c-0.172,0.225,12.399-2.052,24.706-6.987
	c12.433-4.698,23.681-12.876,24.653-13.71c10.593-7.105,27.552-24.534,36.788-50.63c9.945-25.672,14.087-57.088,20.684-86.571
	c6.193-29.56,17.329-57.045,33.407-73.943c15.919-17.11,33.182-24.68,40.725-28.121c57.988-24.561,117.802-16.409,180.666-38.085
	c7.352-2.713,14.206-5.955,20.631-9.699L391.332,27.221z"/>
<path fill="none" d="M391.332,27.221c-6.769,3.931-14.007,7.292-21.828,10.123c-20.63,7.094-39.303,10.005-60.277,12.665
	c-42.703,5.65-81.562,5.598-121.626,22.311c-3.507,1.826-26.513,9.66-47.03,34.513c-21.094,24.799-29.722,66.787-36.814,107.211
	c-6.472,40.322-21.187,81.967-48.09,100.162c-25.579,18.302-47.374,20.194-47.202,21.809c-0.172,0.225,12.399-2.052,24.706-6.987
	c12.433-4.698,23.681-12.876,24.653-13.71c10.593-7.105,27.552-24.534,36.788-50.63c9.945-25.672,14.087-57.088,20.684-86.571
	c6.193-29.56,17.329-57.045,33.407-73.943c15.919-17.11,33.182-24.68,40.725-28.121c57.988-24.561,117.802-16.409,180.666-38.085
	c7.352-2.713,14.206-5.955,20.631-9.699L391.332,27.221z"/>
<path fill="#FFFFFF" d="M387.501,34.182c-5.28,2.713-10.785,5.107-16.581,7.192c-21.153,7.271-40.05,10.209-61.124,12.882
	c-42.922,5.624-81.569,5.717-120.508,22.021c-3.454,1.76-25.679,9.396-45.363,33.202c-20.247,23.688-28.861,64.723-35.954,105.332
	c-6.412,40.322-21.498,83.674-49.737,102.809C31.489,336.741,9.231,338.527,9.39,340.195c-0.172,0.225,12.69-2.104,25.415-7.226
	c12.869-4.843,24.606-13.392,25.646-14.266c11.043-7.37,28.782-25.778,38.19-52.549c10.163-26.334,14.292-57.935,20.843-87.113
	c6.166-29.361,17.024-55.854,32.388-71.973c15.265-16.396,31.905-23.714,39.25-27.074c56.439-24.085,116.16-16.013,180.395-37.979
	c5.359-1.985,10.487-4.234,15.377-6.749L387.501,34.182z"/>
<path fill="none" d="M387.501,34.182c-5.28,2.713-10.785,5.107-16.581,7.192c-21.153,7.271-40.05,10.209-61.124,12.882
	c-42.922,5.624-81.569,5.717-120.508,22.021c-3.454,1.76-25.679,9.396-45.363,33.202c-20.247,23.688-28.861,64.723-35.954,105.332
	c-6.412,40.322-21.498,83.674-49.737,102.809C31.489,336.741,9.231,338.527,9.39,340.195c-0.172,0.225,12.69-2.104,25.415-7.226
	c12.869-4.843,24.606-13.392,25.646-14.266c11.043-7.37,28.782-25.778,38.19-52.549c10.163-26.334,14.292-57.935,20.843-87.113
	c6.166-29.361,17.024-55.854,32.388-71.973c15.265-16.396,31.905-23.714,39.25-27.074c56.439-24.085,116.16-16.013,180.395-37.979
	c5.359-1.985,10.487-4.234,15.377-6.749L387.501,34.182z"/>
<path fill="#FFFFFF" d="M353.836,79.307l-4.01,4.645c0.774-0.675,1.641-1.297,2.627-1.826
	C353.519,81.265,353.552,80.405,353.836,79.307"/>
<path fill="none" d="M353.836,79.307l-4.01,4.645c0.774-0.675,1.641-1.297,2.627-1.826
	C353.519,81.265,353.552,80.405,353.836,79.307z"/>
<polygon fill="#FFFFFF" points="346.28,88.397 345.604,89.231 345.208,90.092 "/>
<polygon fill="none" points="346.28,88.397 345.604,89.231 345.208,90.092 "/>
<path fill="#FFFFFF" d="M340.483,97.317c1.191-1.456,2.171-2.958,3.058-4.474C342.509,93.982,341.47,95.451,340.483,97.317"/>
<path fill="none" d="M340.483,97.317c1.191-1.456,2.171-2.958,3.058-4.474C342.509,93.982,341.47,95.451,340.483,97.317z"/>
<path fill="#FFFFFF" d="M345.936,90.833c-0.675,0.304-1.171,0.317-0.734-0.702l0.007-0.039l-1.674,2.752
	C344.341,92.011,345.135,91.362,345.936,90.833"/>
<path fill="none" d="M345.936,90.833c-0.675,0.304-1.171,0.317-0.734-0.702l0.007-0.039l-1.674,2.752
	C344.341,92.011,345.135,91.362,345.936,90.833z"/>
<path fill="#FFFFFF" d="M345.936,90.833c0.662-0.305,1.522-0.9,1.886-1.059C347.199,90.052,346.598,90.383,345.936,90.833"/>
<path fill="none" d="M345.936,90.833c0.662-0.305,1.522-0.9,1.886-1.059C347.199,90.052,346.598,90.383,345.936,90.833z"/>
<path fill="#FFFFFF" d="M351.163,97.992c-0.397,1.005-2.197-0.609-2.958,1.389c-2.309,4.354-3.791,8.364-6.306,12.148
	c-0.728,1.998-4.764,3.269-5.412,5.319c-2.131,4.474-5.915,16.793-2.157,10.468c5.531-9.541,8.906-15.893,14.232-24.177
	c3.791-7.106,7.616-13.842,12.194-20.724c1.363-1.839,3.018-3.255,4.539-4.764c-2.15,1.826-4.387,3.705-6.656,5.995
	C355.378,86.479,354.649,92.447,351.163,97.992"/>
<path fill="none" d="M351.163,97.992c-0.397,1.005-2.197-0.609-2.958,1.389c-2.309,4.354-3.791,8.364-6.306,12.148
	c-0.728,1.998-4.764,3.269-5.412,5.319c-2.131,4.474-5.915,16.793-2.157,10.468c5.531-9.541,8.906-15.893,14.232-24.177
	c3.791-7.106,7.616-13.842,12.194-20.724c1.363-1.839,3.018-3.255,4.539-4.764c-2.15,1.826-4.387,3.705-6.656,5.995
	C355.378,86.479,354.649,92.447,351.163,97.992z"/>
<path fill="#FFFFFF" d="M300.52,166.09c0.317-0.701,0.741-1.522,1.191-2.408l-5.81,9.045
	C297.886,171.74,299.21,168.922,300.52,166.09"/>
<path fill="none" d="M300.52,166.09c0.317-0.701,0.741-1.522,1.191-2.408l-5.81,9.045C297.886,171.74,299.21,168.922,300.52,166.09z
	"/>
<path fill="#FFFFFF" d="M329.805,117.18c-7.457,11.844-14.199,23.211-20.869,34.221c-0.105,1.072,0.014,1.959-0.906,2.965
	c-0.866,0.661-1.595,1.39-2.256,2.17l-2.958,4.764l-0.854,1.813v0.053c-0.305,1.046,0.165,0.979,0.808,0.582
	c0.602-0.489,1.19-0.913,1.746-1.23c-0.337,0.198-1.124,0.873-1.746,1.23c-0.702,0.609-1.423,1.363-2.131,2.25
	c-0.741,1.568-1.602,3.123-2.687,4.658c0.841-1.919,1.773-3.44,2.687-4.658l1.323-2.885l0.291-0.887l-6.901,10.798
	c-0.456,0.86-0.893,1.681-1.224,2.353c-1.356,2.779-2.818,5.531-4.856,6.444l-1.356,1.8l0.443-0.212l-0.675,0.529
	c-1.926,2.541-3.957,4.976-6.055,7.371c-1.038,1.813-1.892,3.864-3.222,5.598c0,0-1.568,0.477-2.343,0.701
	c-0.158,1.046-0.787,2.184-1.746,3.295c1.793-0.582,3.474-1.164,4.869-1.892c2.495-0.755,1.542-5.214,4.949-5.664
	c-3.407,0.45-2.454,4.909-4.949,5.664c-1.396,0.728-3.076,1.31-4.869,1.892c-1.919,2.383-5.34,4.526-8.549,5.28
	c2.567-2.99,5.61-4.208,8.549-5.28c0.959-1.111,1.588-2.249,1.746-3.295c0.774-0.225,2.343-0.701,2.343-0.701
	c1.33-1.733,2.184-3.784,3.222-5.598c-4.108,4.646-8.74,8.84-13.875,12.466c-16.687,11.513-36.841,14.769-56.24,12.214
	c-18.48-2.435-41.407-9.541-48.188-26.308c-4.97-18.575,15.277-37.01,32.526-44.036c8.635-3.877,19.46-4.42,21.074-2.144
	c1.707,1.998,2.964,9.938-2.706,14.212c-11.731,10.772-34.103,15.456-55.03,16.065c-16.33,0.854-47.242,4.205-62.659,3.583
	c-19.096,2.408-11.486,13.021-10.249,14.133c13.24,10.018,24.515,5.465,53.052,8.284c-19.413-1.351,13.432-6.246,32.6-4.327
	c14.08,1.72,30.873-1.442,48.09-11.765c8.151-5.373,18.434-13.892,21.146-28.501c0.847-7.212,0.503-13.101-2.832-20.359
	c-2.984-7.053-10.812-13.227-17.508-14.709c-13.809-3.586-24.382,0.662-34.79,5.241c-13.497,6.153-25.235,14.768-34.088,27.379
	c-4.513,6.141-7.874,13.803-9.747,22.271c-1.634,9.035,0.014,19.568,4.857,27.681c10.202,16.157,24.871,21.94,38.164,26.492
	c13.716,4.036,27.585,6.074,42.644,5.585c16.316-0.939,29.431-7.411,40.414-15.218c8.271-5.148,16.694-11.447,21.809-17.243
	c8.026-9.145,12.459-18.116,16.369-26.427c-5.055,8.933-8.409,15.92-16.21,25.526c-5.333,6.246,1.614-6.285,3.831-10.864
	c0.893-2.064,5.015-3.414,5.796-5.571c2.62-3.996,4.003-8.271,5.948-12.859c0.635-2.104,2.58-0.635,2.892-1.713
	c3.011-6.121,2.944-12.135,5.684-15.536c1.945-2.627,3.745-4.969,5.498-7.245c1.02-1.509,2.024-2.978,2.918-4.658l1.323-3.454
	c-1.111,0.464-2.064,0.305-3.023,0.126c0.999-1.462,2.746-3.302,3.778-4.771c-1.032,1.469-2.779,3.309-3.778,4.771
	c0.959,0.179,1.912,0.338,3.023-0.126c3.295-8.257,7.497-17.573,11.791-26.043h-0.265c-2.772,4.738-5.862,9.171-10.097,13.3
	c1.753-1.853,2.156-1.218,0.787,1.271l-2.164,1.23c2.025-4.552,3.99-9.157,8.007-12.135c0,0,0.714-2.064,1.045-3.097
	c1.125-1.138,1.714-0.655,2.422-0.569l1.654-2.831C335.019,111.86,329.824,117.18,329.805,117.18"/>
<path fill="none" d="M329.805,117.18c-7.457,11.844-14.199,23.211-20.869,34.221c-0.105,1.072,0.014,1.959-0.906,2.965
	c-0.866,0.661-1.595,1.39-2.256,2.17l-2.958,4.764l-0.854,1.813v0.053c-0.305,1.046,0.165,0.979,0.808,0.582
	c0.602-0.489,1.19-0.913,1.746-1.23c-0.337,0.198-1.124,0.873-1.746,1.23c-0.702,0.609-1.423,1.363-2.131,2.25
	c-0.741,1.568-1.602,3.123-2.687,4.658c0.841-1.919,1.773-3.44,2.687-4.658l1.323-2.885l0.291-0.887l-6.901,10.798
	c-0.456,0.86-0.893,1.681-1.224,2.353c-1.356,2.779-2.818,5.531-4.856,6.444l-1.356,1.8l0.443-0.212l-0.675,0.529
	c-1.926,2.541-3.957,4.976-6.055,7.371c-1.038,1.813-1.892,3.864-3.222,5.598c0,0-1.568,0.477-2.343,0.701
	c-0.158,1.046-0.787,2.184-1.746,3.295c1.793-0.582,3.474-1.164,4.869-1.892c2.495-0.755,1.542-5.214,4.949-5.664
	c-3.407,0.45-2.454,4.909-4.949,5.664c-1.396,0.728-3.076,1.31-4.869,1.892c-1.919,2.383-5.34,4.526-8.549,5.28
	c2.567-2.99,5.61-4.208,8.549-5.28c0.959-1.111,1.588-2.249,1.746-3.295c0.774-0.225,2.343-0.701,2.343-0.701
	c1.33-1.733,2.184-3.784,3.222-5.598c-4.108,4.646-8.74,8.84-13.875,12.466c-16.687,11.513-36.841,14.769-56.24,12.214
	c-18.48-2.435-41.407-9.541-48.188-26.308c-4.97-18.575,15.277-37.01,32.526-44.036c8.635-3.877,19.46-4.42,21.074-2.144
	c1.707,1.998,2.964,9.938-2.706,14.212c-11.731,10.772-34.103,15.456-55.03,16.065c-16.33,0.854-47.242,4.205-62.659,3.583
	c-19.096,2.408-11.486,13.021-10.249,14.133c13.24,10.018,24.515,5.465,53.052,8.284c-19.413-1.351,13.432-6.246,32.6-4.327
	c14.08,1.72,30.873-1.442,48.09-11.765c8.151-5.373,18.434-13.892,21.146-28.501c0.847-7.212,0.503-13.101-2.832-20.359
	c-2.984-7.053-10.812-13.227-17.508-14.709c-13.809-3.586-24.382,0.662-34.79,5.241c-13.497,6.153-25.235,14.768-34.088,27.379
	c-4.513,6.141-7.874,13.803-9.747,22.271c-1.634,9.035,0.014,19.568,4.857,27.681c10.202,16.157,24.871,21.94,38.164,26.492
	c13.716,4.036,27.585,6.074,42.644,5.585c16.316-0.939,29.431-7.411,40.414-15.218c8.271-5.148,16.694-11.447,21.809-17.243
	c8.026-9.145,12.459-18.116,16.369-26.427c-5.055,8.933-8.409,15.92-16.21,25.526c-5.333,6.246,1.614-6.285,3.831-10.864
	c0.893-2.064,5.015-3.414,5.796-5.571c2.62-3.996,4.003-8.271,5.948-12.859c0.635-2.104,2.58-0.635,2.892-1.713
	c3.011-6.121,2.944-12.135,5.684-15.536c1.945-2.627,3.745-4.969,5.498-7.245c1.02-1.509,2.024-2.978,2.918-4.658l1.323-3.454
	c-1.111,0.464-2.064,0.305-3.023,0.126c0.999-1.462,2.746-3.302,3.778-4.771c-1.032,1.469-2.779,3.309-3.778,4.771
	c0.959,0.179,1.912,0.338,3.023-0.126c3.295-8.257,7.497-17.573,11.791-26.043h-0.265c-2.772,4.738-5.862,9.171-10.097,13.3
	c1.753-1.853,2.156-1.218,0.787,1.271l-2.164,1.23c2.025-4.552,3.99-9.157,8.007-12.135c0,0,0.714-2.064,1.045-3.097
	c1.125-1.138,1.714-0.655,2.422-0.569l1.654-2.831C335.019,111.86,329.824,117.18,329.805,117.18z"/>
<path fill="#142888" d="M406.299,0c-11.374,10.772-24.455,19.188-41.017,25.209c-19.175,6.604-37.125,9.436-57.716,12.056
	c-42.102,5.69-81.629,5.307-125.001,23.237c-3.712,1.998-29.026,10.468-52.092,38.35c-23.635,28.134-32.289,73.008-39.343,112.783
	c-6.604,40.454-20.267,76.911-43.18,92.275c-22.066,15.933-42.479,18.076-42.24,19.545c-0.172,0.225,11.486-1.905,22.523-6.312
	c11.182-4.194,20.895-11.327,21.769-12.028c9.21-6.207,23.886-20.724,32.54-44.86c9.276-23.688,13.472-54.521,20.181-84.838
	c6.312-30.288,18.248-60.711,36.483-79.898c17.925-19.268,37.066-27.578,45.198-31.283c62.547-25.95,122.658-17.613,181.434-38.396
	c15.886-5.896,28.609-14.14,39.759-24.574L406.299,0z"/>
<path fill="#142888" d="M400.377,10.745c-9.766,7.636-20.763,13.829-33.679,18.514c-19.664,6.762-37.854,9.634-58.576,12.254
	c-42.313,5.677-81.596,5.399-123.883,22.933c-3.646,1.933-28.192,10.177-50.392,37.066c-22.787,27.022-31.448,70.93-38.509,110.943
	c-6.569,40.401-20.563,78.579-44.82,94.869c-23.225,16.727-44.1,18.817-43.881,20.312c-0.192,0.225,11.797-1.945,23.25-6.55
	c11.586-4.341,21.809-11.805,22.735-12.572c9.66-6.511,25.09-22.007,33.942-46.779c9.502-24.349,13.657-55.367,20.347-85.42
	c6.266-30.049,17.95-59.479,35.471-77.9c17.25-18.539,35.763-26.611,43.696-30.251C247.11,42.69,307.104,50.968,367.268,29.881
	c12.347-4.579,22.999-10.587,32.487-17.984L400.377,10.745z"/>
<path fill="#142888" d="M395.547,19.546c-8.251,5.505-17.322,10.083-27.452,13.749c-20.161,6.935-38.574,9.825-59.424,12.466
	c-42.505,5.677-81.582,5.491-122.744,22.615c-3.586,1.879-27.359,9.925-48.718,35.782c-21.94,25.938-30.595,68.865-37.668,109.078
	c-6.518,40.374-20.875,80.299-46.455,97.528C28.69,328.299,7.352,330.271,7.551,331.818c-0.186,0.238,12.108-1.998,23.965-6.762
	c12.029-4.513,22.761-12.36,23.707-13.167c10.124-6.775,26.328-23.251,35.359-48.698c9.733-24.984,13.882-56.215,20.518-85.963
	c6.227-29.824,17.641-58.275,34.453-75.948c16.562-17.818,34.473-25.64,42.214-29.186c59.503-24.998,119.396-16.78,180.91-38.178
	c9.641-3.547,18.328-8.006,26.288-13.3L395.547,19.546z"/>
<path fill="#142888" d="M391.332,27.221c-6.769,3.931-14.007,7.292-21.828,10.123c-20.63,7.094-39.303,10.005-60.277,12.665
	c-42.703,5.65-81.562,5.598-121.626,22.311c-3.507,1.826-26.513,9.66-47.03,34.513c-21.094,24.799-29.722,66.787-36.814,107.211
	c-6.472,40.322-21.187,81.967-48.09,100.162c-25.579,18.302-47.374,20.194-47.202,21.809c-0.172,0.225,12.399-2.052,24.706-6.987
	c12.433-4.698,23.681-12.876,24.653-13.71c10.593-7.105,27.552-24.534,36.788-50.63c9.945-25.672,14.087-57.088,20.684-86.571
	c6.193-29.56,17.329-57.045,33.407-73.943c15.919-17.11,33.182-24.68,40.725-28.121c57.988-24.561,117.802-16.409,180.666-38.085
	c7.352-2.713,14.206-5.955,20.631-9.699L391.332,27.221z"/>
<path fill="#142888" d="M387.501,34.182c-5.28,2.713-10.785,5.107-16.581,7.192c-21.153,7.271-40.05,10.209-61.124,12.882
	c-42.922,5.624-81.569,5.717-120.508,22.021c-3.454,1.76-25.679,9.396-45.363,33.202c-20.247,23.688-28.861,64.723-35.954,105.332
	c-6.412,40.322-21.498,83.674-49.737,102.809C31.489,336.741,9.231,338.527,9.39,340.195c-0.172,0.225,12.69-2.104,25.415-7.226
	c12.869-4.843,24.606-13.392,25.646-14.266c11.043-7.37,28.782-25.778,38.19-52.549c10.163-26.334,14.292-57.935,20.843-87.113
	c6.166-29.361,17.024-55.854,32.388-71.973c15.265-16.396,31.905-23.714,39.25-27.074c56.439-24.085,116.16-16.013,180.395-37.979
	c5.359-1.985,10.487-4.234,15.377-6.749L387.501,34.182z"/>
<path fill="#ED6B24" d="M353.836,79.307l-4.01,4.645c0.774-0.675,1.641-1.297,2.627-1.826
	C353.519,81.265,353.552,80.405,353.836,79.307"/>
<polygon fill="#ED6B24" points="346.28,88.397 345.604,89.231 345.208,90.092 "/>
<path fill="#ED6B24" d="M340.483,97.317c1.191-1.456,2.171-2.958,3.058-4.474C342.509,93.982,341.47,95.451,340.483,97.317"/>
<path fill="#ED6B24" d="M345.936,90.833c-0.675,0.304-1.171,0.317-0.734-0.702l0.007-0.039l-1.674,2.752
	C344.341,92.011,345.135,91.362,345.936,90.833"/>
<path fill="#ED6B24" d="M345.936,90.833c0.662-0.305,1.522-0.9,1.886-1.059C347.199,90.052,346.598,90.383,345.936,90.833"/>
<path fill="#ED6B24" d="M351.163,97.992c-0.397,1.005-2.197-0.609-2.958,1.389c-2.309,4.354-3.791,8.364-6.306,12.148
	c-0.728,1.998-4.764,3.269-5.412,5.319c-2.131,4.474-5.915,16.793-2.157,10.468c5.531-9.541,8.906-15.893,14.232-24.177
	c3.791-7.106,7.616-13.842,12.194-20.724c1.363-1.839,3.018-3.255,4.539-4.764c-2.15,1.826-4.387,3.705-6.656,5.995
	C355.378,86.479,354.649,92.447,351.163,97.992"/>
<path fill="#ED6B24" d="M387.971,49.771c-0.768,0.794-2.282,2.368-2.27,2.355c-4.804,1.442-8.575,4.988-11.751,8.866l2.441-0.529
	c2.045-1.999,1.873-2.739-0.377-1.456c5.399-2.62,9.793-5.69,14.431-8.733C389.811,49.876,389.499,49.214,387.971,49.771"/>
<path fill="#ED6B24" d="M300.52,166.09c0.317-0.701,0.741-1.522,1.191-2.408l-5.81,9.045
	C297.886,171.74,299.21,168.922,300.52,166.09"/>
<path fill="#ED6B24" d="M329.805,117.18c-7.457,11.844-14.199,23.211-20.869,34.221c-0.105,1.072,0.014,1.959-0.906,2.965
	c-0.866,0.661-1.595,1.39-2.256,2.17l-2.958,4.764l-0.854,1.813v0.053c-0.305,1.046,0.165,0.979,0.808,0.582
	c0.602-0.489,1.19-0.913,1.746-1.23c-0.337,0.198-1.124,0.873-1.746,1.23c-0.702,0.609-1.423,1.363-2.131,2.25
	c-0.741,1.568-1.602,3.123-2.687,4.658c0.841-1.919,1.773-3.44,2.687-4.658l1.323-2.885l0.291-0.887l-6.901,10.798
	c-0.456,0.86-0.893,1.681-1.224,2.353c-1.356,2.779-2.818,5.531-4.856,6.444l-1.356,1.8l0.443-0.212l-0.675,0.529
	c-1.926,2.541-3.957,4.976-6.055,7.371c-1.038,1.813-1.892,3.864-3.222,5.598c0,0-1.568,0.477-2.343,0.701
	c-0.158,1.046-0.787,2.184-1.746,3.295c1.793-0.582,3.474-1.164,4.869-1.892c2.495-0.755,1.542-5.214,4.949-5.664
	c-3.407,0.45-2.454,4.909-4.949,5.664c-1.396,0.728-3.076,1.31-4.869,1.892c-1.919,2.383-5.34,4.526-8.549,5.28
	c2.567-2.99,5.61-4.208,8.549-5.28c0.959-1.111,1.588-2.249,1.746-3.295c0.774-0.225,2.343-0.701,2.343-0.701
	c1.33-1.733,2.184-3.784,3.222-5.598c-4.108,4.646-8.74,8.84-13.875,12.466c-16.687,11.513-36.841,14.769-56.24,12.214
	c-18.48-2.435-41.407-9.541-48.188-26.308c-4.97-18.575,15.277-37.01,32.526-44.036c8.635-3.877,19.46-4.42,21.074-2.144
	c1.707,1.998,2.964,9.938-2.706,14.212c-11.731,10.772-34.103,15.456-55.03,16.065c-16.33,0.854-47.242,4.205-62.659,3.583
	c-19.096,2.408-11.486,13.021-10.249,14.133c13.24,10.018,24.515,5.465,53.052,8.284c-19.413-1.351,13.432-6.246,32.6-4.327
	c14.08,1.72,30.873-1.442,48.09-11.765c8.151-5.373,18.434-13.892,21.146-28.501c0.847-7.212,0.503-13.101-2.832-20.359
	c-2.984-7.053-10.812-13.227-17.508-14.709c-13.809-3.586-24.382,0.662-34.79,5.241c-13.497,6.153-25.235,14.768-34.088,27.379
	c-4.513,6.141-7.874,13.803-9.747,22.271c-1.634,9.035,0.014,19.568,4.857,27.681c10.202,16.157,24.871,21.94,38.164,26.492
	c13.716,4.036,27.585,6.074,42.644,5.585c16.316-0.939,29.431-7.411,40.414-15.218c8.271-5.148,16.694-11.447,21.809-17.243
	c8.026-9.145,12.459-18.116,16.369-26.427c-5.055,8.933-8.409,15.92-16.21,25.526c-5.333,6.246,1.614-6.285,3.831-10.864
	c0.893-2.064,5.015-3.414,5.796-5.571c2.62-3.996,4.003-8.271,5.948-12.859c0.635-2.104,2.58-0.635,2.892-1.713
	c3.011-6.121,2.944-12.135,5.684-15.536c1.945-2.627,3.745-4.969,5.498-7.245c1.02-1.509,2.024-2.978,2.918-4.658l1.323-3.454
	c-1.111,0.464-2.064,0.305-3.023,0.126c0.999-1.462,2.746-3.302,3.778-4.771c-1.032,1.469-2.779,3.309-3.778,4.771
	c0.959,0.179,1.912,0.338,3.023-0.126c3.295-8.257,7.497-17.573,11.791-26.043h-0.265c-2.772,4.738-5.862,9.171-10.097,13.3
	c1.753-1.853,2.156-1.218,0.787,1.271l-2.164,1.23c2.025-4.552,3.99-9.157,8.007-12.135c0,0,0.714-2.064,1.045-3.097
	c1.125-1.138,1.714-0.655,2.422-0.569l1.654-2.831C335.019,111.86,329.824,117.18,329.805,117.18"/>
</svg>
